G04 Layer_Physical_Order=1*
G04 Layer_Color=255*
%FSLAX25Y25*%
%MOIN*%
G70*
G01*
G75*
%ADD10C,0.06693*%
G04:AMPARAMS|DCode=11|XSize=78.74mil|YSize=161.42mil|CornerRadius=9.84mil|HoleSize=0mil|Usage=FLASHONLY|Rotation=0.000|XOffset=0mil|YOffset=0mil|HoleType=Round|Shape=RoundedRectangle|*
%AMROUNDEDRECTD11*
21,1,0.07874,0.14173,0,0,0.0*
21,1,0.05906,0.16142,0,0,0.0*
1,1,0.01969,0.02953,-0.07087*
1,1,0.01969,-0.02953,-0.07087*
1,1,0.01969,-0.02953,0.07087*
1,1,0.01969,0.02953,0.07087*
%
%ADD11ROUNDEDRECTD11*%
%ADD12R,0.04134X0.12598*%
%ADD13R,0.41142X0.32677*%
G04:AMPARAMS|DCode=14|XSize=157.48mil|YSize=62.99mil|CornerRadius=7.87mil|HoleSize=0mil|Usage=FLASHONLY|Rotation=270.000|XOffset=0mil|YOffset=0mil|HoleType=Round|Shape=RoundedRectangle|*
%AMROUNDEDRECTD14*
21,1,0.15748,0.04724,0,0,270.0*
21,1,0.14173,0.06299,0,0,270.0*
1,1,0.01575,-0.02362,-0.07087*
1,1,0.01575,-0.02362,0.07087*
1,1,0.01575,0.02362,0.07087*
1,1,0.01575,0.02362,-0.07087*
%
%ADD14ROUNDEDRECTD14*%
G04:AMPARAMS|DCode=15|XSize=98.43mil|YSize=86.61mil|CornerRadius=10.83mil|HoleSize=0mil|Usage=FLASHONLY|Rotation=90.000|XOffset=0mil|YOffset=0mil|HoleType=Round|Shape=RoundedRectangle|*
%AMROUNDEDRECTD15*
21,1,0.09843,0.06496,0,0,90.0*
21,1,0.07677,0.08661,0,0,90.0*
1,1,0.02165,0.03248,0.03839*
1,1,0.02165,0.03248,-0.03839*
1,1,0.02165,-0.03248,-0.03839*
1,1,0.02165,-0.03248,0.03839*
%
%ADD15ROUNDEDRECTD15*%
G04:AMPARAMS|DCode=16|XSize=39.37mil|YSize=35.43mil|CornerRadius=4.43mil|HoleSize=0mil|Usage=FLASHONLY|Rotation=0.000|XOffset=0mil|YOffset=0mil|HoleType=Round|Shape=RoundedRectangle|*
%AMROUNDEDRECTD16*
21,1,0.03937,0.02658,0,0,0.0*
21,1,0.03051,0.03543,0,0,0.0*
1,1,0.00886,0.01526,-0.01329*
1,1,0.00886,-0.01526,-0.01329*
1,1,0.00886,-0.01526,0.01329*
1,1,0.00886,0.01526,0.01329*
%
%ADD16ROUNDEDRECTD16*%
G04:AMPARAMS|DCode=17|XSize=31.5mil|YSize=31.5mil|CornerRadius=3.94mil|HoleSize=0mil|Usage=FLASHONLY|Rotation=90.000|XOffset=0mil|YOffset=0mil|HoleType=Round|Shape=RoundedRectangle|*
%AMROUNDEDRECTD17*
21,1,0.03150,0.02362,0,0,90.0*
21,1,0.02362,0.03150,0,0,90.0*
1,1,0.00787,0.01181,0.01181*
1,1,0.00787,0.01181,-0.01181*
1,1,0.00787,-0.01181,-0.01181*
1,1,0.00787,-0.01181,0.01181*
%
%ADD17ROUNDEDRECTD17*%
%ADD18R,0.23622X0.15748*%
%ADD19C,0.02000*%
%ADD20C,0.03937*%
%ADD21R,0.05906X0.05906*%
%ADD22C,0.05906*%
G04:AMPARAMS|DCode=23|XSize=100mil|YSize=100mil|CornerRadius=12.5mil|HoleSize=0mil|Usage=FLASHONLY|Rotation=90.000|XOffset=0mil|YOffset=0mil|HoleType=Round|Shape=RoundedRectangle|*
%AMROUNDEDRECTD23*
21,1,0.10000,0.07500,0,0,90.0*
21,1,0.07500,0.10000,0,0,90.0*
1,1,0.02500,0.03750,0.03750*
1,1,0.02500,0.03750,-0.03750*
1,1,0.02500,-0.03750,-0.03750*
1,1,0.02500,-0.03750,0.03750*
%
%ADD23ROUNDEDRECTD23*%
%ADD24C,0.10000*%
%ADD25O,0.13780X0.08661*%
%ADD26R,0.13780X0.08661*%
%ADD27C,0.25590*%
%ADD28C,0.02500*%
%ADD29C,0.05000*%
G36*
X174553Y193268D02*
X172969Y192297D01*
X171318Y190887D01*
X169907Y189236D01*
X168773Y187385D01*
X167942Y185379D01*
X167435Y183267D01*
X167383Y182602D01*
X181102D01*
Y181102D01*
X182602D01*
Y167383D01*
X183267Y167435D01*
X185379Y167942D01*
X187385Y168773D01*
X189236Y169907D01*
X190887Y171318D01*
X192297Y172969D01*
X193268Y174553D01*
X193768Y174411D01*
Y22439D01*
X193268Y22298D01*
X192297Y23882D01*
X190887Y25533D01*
X189236Y26943D01*
X187385Y28078D01*
X185379Y28909D01*
X183267Y29416D01*
X182602Y29468D01*
Y15748D01*
X181102D01*
Y14248D01*
X167383D01*
X167435Y13583D01*
X167942Y11472D01*
X168773Y9466D01*
X169907Y7614D01*
X171318Y5963D01*
X172969Y4553D01*
X174553Y3582D01*
X174411Y3082D01*
X22439D01*
X22298Y3582D01*
X23882Y4553D01*
X25533Y5963D01*
X26943Y7614D01*
X28078Y9466D01*
X28909Y11472D01*
X29416Y13583D01*
X29468Y14248D01*
X15748D01*
Y15748D01*
X14248D01*
Y29468D01*
X13583Y29416D01*
X11472Y28909D01*
X9466Y28078D01*
X7614Y26943D01*
X5963Y25533D01*
X4553Y23882D01*
X3582Y22298D01*
X3082Y22439D01*
Y138779D01*
X3082Y138779D01*
Y164370D01*
Y174411D01*
X3582Y174553D01*
X4553Y172969D01*
X5963Y171318D01*
X7614Y169907D01*
X9466Y168773D01*
X11472Y167942D01*
X13583Y167435D01*
X14248Y167383D01*
Y181102D01*
X15748D01*
Y182602D01*
X29468D01*
X29416Y183267D01*
X28909Y185379D01*
X28078Y187385D01*
X26943Y189236D01*
X25533Y190887D01*
X23882Y192297D01*
X22298Y193268D01*
X22439Y193768D01*
X174411D01*
X174553Y193268D01*
D02*
G37*
%LPC*%
G36*
X78575Y46779D02*
X78453Y46697D01*
X78197D01*
X78075Y46779D01*
Y45075D01*
Y43371D01*
X78197Y43453D01*
X78453D01*
X78575Y43371D01*
Y45075D01*
Y46779D01*
D02*
G37*
G36*
X82075D02*
X81953Y46697D01*
X81697D01*
X81575Y46779D01*
Y45075D01*
Y43371D01*
X81697Y43453D01*
X81953D01*
X82075Y43371D01*
Y45075D01*
Y46779D01*
D02*
G37*
G36*
X75075D02*
X74953Y46697D01*
X74697D01*
X74575Y46779D01*
Y45075D01*
Y43371D01*
X74697Y43453D01*
X74953D01*
X75075Y43371D01*
Y45075D01*
Y46779D01*
D02*
G37*
G36*
X182537Y50075D02*
X178665D01*
Y45613D01*
X180413D01*
X181226Y45774D01*
X181915Y46235D01*
X182375Y46924D01*
X182537Y47736D01*
Y50075D01*
D02*
G37*
G36*
X61075Y46779D02*
X60953Y46697D01*
X60871Y46575D01*
X61075D01*
Y46779D01*
D02*
G37*
G36*
X71575D02*
X71453Y46697D01*
X71197D01*
X71075Y46779D01*
Y45075D01*
X68075D01*
Y46779D01*
X67953Y46697D01*
X67697D01*
X67575Y46779D01*
Y45075D01*
X64575D01*
Y46779D01*
X64453Y46697D01*
X64197D01*
X64075Y46779D01*
Y45075D01*
X62575D01*
Y43575D01*
X60871D01*
X60953Y43453D01*
Y43197D01*
X60871Y43075D01*
X62575D01*
Y40075D01*
X60871D01*
X60953Y39953D01*
Y39697D01*
X60871Y39575D01*
X62575D01*
Y36575D01*
X60871D01*
X60953Y36453D01*
Y36197D01*
X60871Y36075D01*
X62575D01*
Y33075D01*
X60871D01*
X60953Y32953D01*
Y32697D01*
X60871Y32575D01*
X62575D01*
Y29575D01*
X60831D01*
X60911Y29325D01*
X60831Y29075D01*
X62575D01*
Y26075D01*
X60871D01*
X60953Y25953D01*
Y25697D01*
X60871Y25575D01*
X62575D01*
Y22575D01*
X60871D01*
X60953Y22453D01*
Y22197D01*
X60871Y22075D01*
X62575D01*
Y19075D01*
X60871D01*
X60953Y18953D01*
Y18697D01*
X60871Y18575D01*
X62575D01*
Y15575D01*
X60871D01*
X60953Y15453D01*
Y15197D01*
X60871Y15075D01*
X62575D01*
Y12075D01*
X60871D01*
X60953Y11953D01*
Y11697D01*
X60871Y11575D01*
X62575D01*
Y8575D01*
X60871D01*
X60953Y8453D01*
Y8197D01*
X60871Y8075D01*
X62575D01*
Y6575D01*
X64075D01*
Y4871D01*
X64197Y4953D01*
X64453D01*
X64575Y4871D01*
Y6575D01*
X67575D01*
Y4871D01*
X67697Y4953D01*
X67953D01*
X68075Y4871D01*
Y6575D01*
X71075D01*
Y4871D01*
X71197Y4953D01*
X71453D01*
X71575Y4871D01*
Y6575D01*
Y8279D01*
X71453Y8197D01*
X71197D01*
X70453Y8694D01*
X69575Y8869D01*
X68697Y8694D01*
X68269Y8408D01*
X67908Y8768D01*
X68194Y9197D01*
X68369Y10075D01*
X68194Y10953D01*
X67697Y11697D01*
Y11953D01*
X67779Y12075D01*
X66075D01*
Y15075D01*
X67779D01*
X67697Y15197D01*
Y15453D01*
X67779Y15575D01*
X66075D01*
Y18575D01*
X67779D01*
X67697Y18697D01*
Y18953D01*
X67779Y19075D01*
X66075D01*
Y22075D01*
X67779D01*
X67697Y22197D01*
Y22453D01*
X67779Y22575D01*
X66075D01*
Y25575D01*
X67779D01*
X67697Y25697D01*
Y25953D01*
X67779Y26075D01*
X66075D01*
Y29075D01*
X67779D01*
X67697Y29197D01*
Y29453D01*
X67779Y29575D01*
X66075D01*
Y32575D01*
X67779D01*
X67697Y32697D01*
Y32953D01*
X67779Y33075D01*
X66075D01*
Y36075D01*
X67779D01*
X67697Y36197D01*
Y36453D01*
X67779Y36575D01*
X66075D01*
Y39575D01*
X67779D01*
X67697Y39697D01*
Y39953D01*
X68194Y40697D01*
X68369Y41575D01*
X68194Y42453D01*
X67908Y42881D01*
X68269Y43242D01*
X68697Y42955D01*
X69575Y42781D01*
X70453Y42955D01*
X71197Y43453D01*
X71453D01*
X71575Y43371D01*
Y45075D01*
Y46779D01*
D02*
G37*
G36*
X175665Y57537D02*
X173917D01*
X173105Y57375D01*
X172416Y56915D01*
X171956Y56226D01*
X171794Y55413D01*
Y53075D01*
X175665D01*
Y57537D01*
D02*
G37*
G36*
X180413D02*
X178665D01*
Y53075D01*
X182537D01*
Y55413D01*
X182375Y56226D01*
X181915Y56915D01*
X181226Y57375D01*
X180413Y57537D01*
D02*
G37*
G36*
X82677Y84041D02*
X81305Y83861D01*
X80027Y83331D01*
X78929Y82489D01*
X78086Y81391D01*
X77557Y80112D01*
X77503Y79709D01*
X77287Y79186D01*
X77125Y77953D01*
Y72047D01*
X77067D01*
Y53937D01*
X86713D01*
Y72047D01*
X86655D01*
Y75290D01*
X87268Y76090D01*
X87798Y77368D01*
X87978Y78740D01*
X87798Y80112D01*
X87268Y81391D01*
X86426Y82489D01*
X85328Y83331D01*
X84049Y83861D01*
X82677Y84041D01*
D02*
G37*
G36*
X96075Y46779D02*
X95953Y46697D01*
X95697D01*
X95575Y46779D01*
Y45075D01*
Y43371D01*
X95697Y43453D01*
X95953D01*
X96075Y43371D01*
Y45075D01*
Y46779D01*
D02*
G37*
G36*
X85575D02*
X85453Y46697D01*
X85197D01*
X85075Y46779D01*
Y45075D01*
Y43371D01*
X85197Y43453D01*
X85453D01*
X85575Y43371D01*
Y45075D01*
Y46779D01*
D02*
G37*
G36*
X89075D02*
X88953Y46697D01*
X88697D01*
X88575Y46779D01*
Y45075D01*
Y43371D01*
X88697Y43453D01*
X88953D01*
X89075Y43371D01*
Y45075D01*
Y46779D01*
D02*
G37*
G36*
X92575D02*
X92453Y46697D01*
X92197D01*
X92075Y46779D01*
Y45075D01*
Y43371D01*
X92197Y43453D01*
X92453D01*
X92575Y43371D01*
Y45075D01*
Y46779D01*
D02*
G37*
G36*
X175665Y50075D02*
X171794D01*
Y47736D01*
X171956Y46924D01*
X172416Y46235D01*
X173105Y45774D01*
X173917Y45613D01*
X175665D01*
Y50075D01*
D02*
G37*
G36*
X78575Y8279D02*
X78453Y8197D01*
X78197D01*
X78075Y8279D01*
Y6575D01*
Y4871D01*
X78197Y4953D01*
X78453D01*
X78575Y4871D01*
Y6575D01*
Y8279D01*
D02*
G37*
G36*
X82075D02*
X81953Y8197D01*
X81697D01*
X81575Y8279D01*
Y6575D01*
Y4871D01*
X81697Y4953D01*
X81953D01*
X82075Y4871D01*
Y6575D01*
Y8279D01*
D02*
G37*
G36*
X85575D02*
X85453Y8197D01*
X85197D01*
X85075Y8279D01*
Y6575D01*
Y4871D01*
X85197Y4953D01*
X85453D01*
X85575Y4871D01*
Y6575D01*
Y8279D01*
D02*
G37*
G36*
X61075Y5075D02*
X60871D01*
X60953Y4953D01*
X61075Y4871D01*
Y5075D01*
D02*
G37*
G36*
X116779D02*
X116575D01*
Y4871D01*
X116697Y4953D01*
X116779Y5075D01*
D02*
G37*
G36*
X75075Y8279D02*
X74953Y8197D01*
X74697D01*
X74575Y8279D01*
Y6575D01*
Y4871D01*
X74697Y4953D01*
X74953D01*
X75075Y4871D01*
Y6575D01*
Y8279D01*
D02*
G37*
G36*
X89075D02*
X88953Y8197D01*
X88697D01*
X88575Y8279D01*
Y6575D01*
Y4871D01*
X88697Y4953D01*
X88953D01*
X89075Y4871D01*
Y6575D01*
Y8279D01*
D02*
G37*
G36*
X103075D02*
X102953Y8197D01*
X102697D01*
X102575Y8279D01*
Y6575D01*
Y4871D01*
X102697Y4953D01*
X102953D01*
X103075Y4871D01*
Y6575D01*
Y8279D01*
D02*
G37*
G36*
X17248Y29468D02*
Y17248D01*
X29468D01*
X29416Y17913D01*
X28909Y20024D01*
X28078Y22030D01*
X26943Y23882D01*
X25533Y25533D01*
X23882Y26943D01*
X22030Y28078D01*
X20024Y28909D01*
X17913Y29416D01*
X17248Y29468D01*
D02*
G37*
G36*
X179602D02*
X178938Y29416D01*
X176826Y28909D01*
X174820Y28078D01*
X172969Y26943D01*
X171318Y25533D01*
X169907Y23882D01*
X168773Y22030D01*
X167942Y20024D01*
X167435Y17913D01*
X167383Y17248D01*
X179602D01*
Y29468D01*
D02*
G37*
G36*
X92575Y8279D02*
X92453Y8197D01*
X92197D01*
X92075Y8279D01*
Y6575D01*
Y4871D01*
X92197Y4953D01*
X92453D01*
X92575Y4871D01*
Y6575D01*
Y8279D01*
D02*
G37*
G36*
X96075D02*
X95953Y8197D01*
X95697D01*
X95575Y8279D01*
Y6575D01*
Y4871D01*
X95697Y4953D01*
X95953D01*
X96075Y4871D01*
Y6575D01*
Y8279D01*
D02*
G37*
G36*
X99575D02*
X99453Y8197D01*
X99197D01*
X99075Y8279D01*
Y6575D01*
Y4871D01*
X99197Y4953D01*
X99453D01*
X99575Y4871D01*
Y6575D01*
Y8279D01*
D02*
G37*
G36*
X79724Y142377D02*
X78272D01*
Y134768D01*
X81748D01*
Y140354D01*
X81594Y141129D01*
X81155Y141785D01*
X80499Y142223D01*
X79724Y142377D01*
D02*
G37*
G36*
X145843Y166823D02*
X142390D01*
Y163370D01*
X145843D01*
Y166823D01*
D02*
G37*
G36*
X29468Y179602D02*
X17248D01*
Y167383D01*
X17913Y167435D01*
X20024Y167942D01*
X22030Y168773D01*
X23882Y169907D01*
X25533Y171318D01*
X26943Y172969D01*
X28078Y174820D01*
X28909Y176826D01*
X29416Y178938D01*
X29468Y179602D01*
D02*
G37*
G36*
X118504Y137255D02*
X117642D01*
Y129846D01*
X120326D01*
Y135433D01*
X120188Y136130D01*
X119793Y136722D01*
X119201Y137117D01*
X118504Y137255D01*
D02*
G37*
G36*
X80709Y188896D02*
X79188Y188746D01*
X77726Y188303D01*
X76379Y187582D01*
X75198Y186613D01*
X74229Y185432D01*
X73508Y184085D01*
X73065Y182623D01*
X72915Y181102D01*
X73065Y179582D01*
X73508Y178120D01*
X74229Y176773D01*
X74577Y176348D01*
Y169863D01*
X38799Y134085D01*
X31299D01*
Y135039D01*
X12008D01*
Y120866D01*
X31299D01*
Y121821D01*
X40767D01*
X61963Y100625D01*
X62483Y99651D01*
X63443Y98482D01*
X64612Y97523D01*
X65946Y96810D01*
X67393Y96371D01*
X68898Y96223D01*
Y96230D01*
X70047D01*
Y91929D01*
X70175Y90953D01*
X70552Y90043D01*
X71151Y89262D01*
X71933Y88662D01*
X72843Y88285D01*
X73819Y88157D01*
X79724D01*
X80701Y88285D01*
X81611Y88662D01*
X81718Y88744D01*
X97597Y72865D01*
Y72047D01*
X90453D01*
Y53937D01*
X92577D01*
X92865Y53243D01*
X93467Y52459D01*
X97423Y48502D01*
X97423Y48502D01*
X98208Y47900D01*
X99121Y47522D01*
X99528Y47468D01*
X99667Y46968D01*
X99396Y46697D01*
X99197D01*
X99075Y46779D01*
Y45075D01*
Y43371D01*
X99197Y43453D01*
X99453D01*
X99575Y43371D01*
Y45075D01*
X102575D01*
Y43371D01*
X102697Y43453D01*
X102953D01*
X103075Y43371D01*
Y45075D01*
X106075D01*
Y43371D01*
X106197Y43453D01*
X106453D01*
X107197Y42955D01*
X108075Y42781D01*
X108953Y42955D01*
X109381Y43242D01*
X109742Y42881D01*
X109455Y42453D01*
X109281Y41575D01*
X109455Y40697D01*
X109953Y39953D01*
Y39697D01*
X109871Y39575D01*
X111575D01*
Y36575D01*
X109871D01*
X109953Y36453D01*
Y36197D01*
X109871Y36075D01*
X111575D01*
Y33075D01*
X109871D01*
X109953Y32953D01*
Y32697D01*
X109871Y32575D01*
X111575D01*
Y29575D01*
X109871D01*
X109953Y29453D01*
Y29197D01*
X109871Y29075D01*
X111575D01*
Y26075D01*
X109871D01*
X109953Y25953D01*
Y25697D01*
X109871Y25575D01*
X111575D01*
Y22575D01*
X109871D01*
X109953Y22453D01*
Y22197D01*
X109871Y22075D01*
X111575D01*
Y19075D01*
X109871D01*
X109953Y18953D01*
Y18697D01*
X109871Y18575D01*
X111575D01*
Y15575D01*
X109871D01*
X109953Y15453D01*
Y15197D01*
X109871Y15075D01*
X111575D01*
Y12075D01*
X109871D01*
X109953Y11953D01*
Y11697D01*
X109455Y10953D01*
X109281Y10075D01*
X109455Y9197D01*
X109742Y8768D01*
X109381Y8408D01*
X108953Y8694D01*
X108075Y8869D01*
X107197Y8694D01*
X106453Y8197D01*
X106197D01*
X106075Y8279D01*
Y6575D01*
Y4871D01*
X106197Y4953D01*
X106453D01*
X106575Y4871D01*
Y6575D01*
X109575D01*
Y4871D01*
X109697Y4953D01*
X109953D01*
X110075Y4871D01*
Y6575D01*
X113075D01*
Y4871D01*
X113197Y4953D01*
X113453D01*
X113575Y4871D01*
Y6575D01*
X115075D01*
Y8075D01*
X116779D01*
X116697Y8197D01*
Y8453D01*
X116779Y8575D01*
X115075D01*
Y11575D01*
X116779D01*
X116697Y11697D01*
Y11953D01*
X116779Y12075D01*
X115075D01*
Y15075D01*
X116779D01*
X116697Y15197D01*
Y15453D01*
X116779Y15575D01*
X115075D01*
Y18575D01*
X116779D01*
X116697Y18697D01*
Y18953D01*
X116779Y19075D01*
X115075D01*
Y22075D01*
X116779D01*
X116697Y22197D01*
Y22453D01*
X116779Y22575D01*
X115075D01*
Y25575D01*
X116779D01*
X116697Y25697D01*
Y25953D01*
X116779Y26075D01*
X115075D01*
Y29075D01*
X116779D01*
X116697Y29197D01*
Y29453D01*
X116779Y29575D01*
X115075D01*
Y32575D01*
X116779D01*
X116697Y32697D01*
Y32953D01*
X116779Y33075D01*
X115075D01*
Y36075D01*
X116779D01*
X116697Y36197D01*
Y36453D01*
X116779Y36575D01*
X115075D01*
Y39575D01*
X116779D01*
X116697Y39697D01*
Y39953D01*
X116779Y40075D01*
X115075D01*
Y43075D01*
X116779D01*
X116697Y43197D01*
Y43453D01*
X116779Y43575D01*
X115075D01*
Y46575D01*
X116779D01*
X116697Y46697D01*
X116404Y46893D01*
X116556Y47393D01*
X127953D01*
X128933Y47522D01*
X129847Y47900D01*
X130631Y48502D01*
X148813Y66684D01*
X170046D01*
Y66634D01*
X170178Y65632D01*
X170564Y64698D01*
X171180Y63896D01*
X171982Y63281D01*
X172915Y62894D01*
X173917Y62762D01*
X180413D01*
X181415Y62894D01*
X182349Y63281D01*
X183151Y63896D01*
X183766Y64698D01*
X184153Y65632D01*
X184285Y66634D01*
Y74311D01*
X184153Y75313D01*
X183766Y76247D01*
X183297Y76858D01*
Y81693D01*
X183179Y82889D01*
X182831Y84040D01*
X182264Y85100D01*
X181501Y86029D01*
X175984Y91546D01*
Y108071D01*
X146851D01*
Y86811D01*
X163375D01*
X171034Y79153D01*
Y76858D01*
X170564Y76247D01*
X170178Y75313D01*
X170046Y74311D01*
Y74261D01*
X147244D01*
X147244Y74261D01*
X146264Y74132D01*
X145350Y73753D01*
X144565Y73151D01*
X126384Y54969D01*
X106791D01*
Y61635D01*
X106965Y62054D01*
X107127Y63288D01*
Y72959D01*
X107461Y73365D01*
X108027Y74425D01*
X108376Y75575D01*
X108494Y76772D01*
X108376Y77968D01*
X108027Y79118D01*
X107461Y80178D01*
X106698Y81108D01*
X83497Y104309D01*
Y106102D01*
X83368Y107079D01*
X82991Y107989D01*
X82392Y108770D01*
X81611Y109369D01*
X80701Y109746D01*
X79724Y109875D01*
X73819D01*
X72843Y109746D01*
X71933Y109369D01*
X71157Y108774D01*
X50995Y128937D01*
X85044Y162987D01*
X85807Y163916D01*
X86374Y164976D01*
X86723Y166127D01*
X86840Y167323D01*
Y176348D01*
X87189Y176773D01*
X87909Y178120D01*
X88352Y179582D01*
X88502Y181102D01*
X88352Y182623D01*
X87909Y184085D01*
X87189Y185432D01*
X86219Y186613D01*
X85038Y187582D01*
X83691Y188303D01*
X82229Y188746D01*
X80709Y188896D01*
D02*
G37*
G36*
X75272Y142377D02*
X73819D01*
X73045Y142223D01*
X72388Y141785D01*
X71950Y141129D01*
X71796Y140354D01*
Y134768D01*
X75272D01*
Y142377D01*
D02*
G37*
G36*
X179602Y179602D02*
X167383D01*
X167435Y178938D01*
X167942Y176826D01*
X168773Y174820D01*
X169907Y172969D01*
X171318Y171318D01*
X172969Y169907D01*
X174820Y168773D01*
X176826Y167942D01*
X178938Y167435D01*
X179602Y167383D01*
Y179602D01*
D02*
G37*
G36*
X101753D02*
X97209D01*
Y175058D01*
X99459D01*
X100337Y175233D01*
X101081Y175730D01*
X101578Y176474D01*
X101753Y177352D01*
Y179602D01*
D02*
G37*
G36*
X94209Y187146D02*
X91959D01*
X91081Y186972D01*
X90336Y186475D01*
X89839Y185730D01*
X89665Y184852D01*
Y182602D01*
X94209D01*
Y187146D01*
D02*
G37*
G36*
X99459D02*
X97209D01*
Y182602D01*
X101753D01*
Y184852D01*
X101578Y185730D01*
X101081Y186475D01*
X100337Y186972D01*
X99459Y187146D01*
D02*
G37*
G36*
X145843Y171275D02*
X142390D01*
Y167823D01*
X145843D01*
Y171275D01*
D02*
G37*
G36*
X49213Y188896D02*
X47692Y188746D01*
X46230Y188303D01*
X44883Y187582D01*
X43702Y186613D01*
X42733Y185432D01*
X42012Y184085D01*
X41569Y182623D01*
X41419Y181102D01*
X41569Y179582D01*
X42012Y178120D01*
X42733Y176773D01*
X43702Y175592D01*
X44883Y174622D01*
X46230Y173902D01*
X47692Y173459D01*
X49213Y173309D01*
X50733Y173459D01*
X52195Y173902D01*
X53542Y174622D01*
X54723Y175592D01*
X55693Y176773D01*
X55935Y177225D01*
X56451Y177131D01*
X56560Y176307D01*
X56963Y175332D01*
X57606Y174495D01*
X58442Y173853D01*
X59417Y173450D01*
X60463Y173312D01*
X67963D01*
X69008Y173450D01*
X69983Y173853D01*
X70820Y174495D01*
X71462Y175332D01*
X71865Y176307D01*
X72003Y177352D01*
Y184852D01*
X71865Y185898D01*
X71462Y186873D01*
X70820Y187709D01*
X69983Y188352D01*
X69008Y188755D01*
X67963Y188893D01*
X60463D01*
X59417Y188755D01*
X58442Y188352D01*
X57606Y187709D01*
X56963Y186873D01*
X56560Y185898D01*
X56451Y185074D01*
X55935Y184980D01*
X55693Y185432D01*
X54723Y186613D01*
X53542Y187582D01*
X52195Y188303D01*
X50733Y188746D01*
X49213Y188896D01*
D02*
G37*
G36*
X94209Y179602D02*
X89665D01*
Y177352D01*
X89839Y176474D01*
X90336Y175730D01*
X91081Y175233D01*
X91959Y175058D01*
X94209D01*
Y179602D01*
D02*
G37*
G36*
X114642Y137255D02*
X113780D01*
X113082Y137117D01*
X112491Y136722D01*
X112096Y136130D01*
X111957Y135433D01*
Y129846D01*
X114642D01*
Y137255D01*
D02*
G37*
G36*
X24213Y74274D02*
X23154D01*
Y70398D01*
X29361D01*
X28869Y71586D01*
X28015Y72699D01*
X26901Y73554D01*
X25604Y74091D01*
X24213Y74274D01*
D02*
G37*
G36*
Y95704D02*
X19095D01*
X17705Y95567D01*
X16369Y95161D01*
X15138Y94503D01*
X14059Y93618D01*
X13174Y92539D01*
X12516Y91308D01*
X12111Y89972D01*
X11974Y88583D01*
X12111Y87193D01*
X12516Y85858D01*
X13174Y84626D01*
X14059Y83547D01*
X15138Y82662D01*
X16369Y82004D01*
X17705Y81599D01*
X19095Y81462D01*
X24213D01*
X25602Y81599D01*
X26938Y82004D01*
X28169Y82662D01*
X29248Y83547D01*
X30134Y84626D01*
X30792Y85858D01*
X31197Y87193D01*
X31334Y88583D01*
X31197Y89972D01*
X30792Y91308D01*
X30134Y92539D01*
X29248Y93618D01*
X28169Y94503D01*
X26938Y95161D01*
X25602Y95567D01*
X24213Y95704D01*
D02*
G37*
G36*
X119579Y84689D02*
X118898D01*
X118354Y84581D01*
X117893Y84272D01*
X117585Y83811D01*
X117477Y83268D01*
Y82587D01*
X119579D01*
Y84689D01*
D02*
G37*
G36*
X20154Y67398D02*
X13946D01*
X14438Y66209D01*
X15293Y65096D01*
X16406Y64241D01*
X17703Y63704D01*
X19095Y63521D01*
X20154D01*
Y67398D01*
D02*
G37*
G36*
X29361D02*
X23154D01*
Y63521D01*
X24213D01*
X25604Y63704D01*
X26901Y64241D01*
X28015Y65096D01*
X28869Y66209D01*
X29361Y67398D01*
D02*
G37*
G36*
X20154Y74274D02*
X19095D01*
X17703Y74091D01*
X16406Y73554D01*
X15293Y72699D01*
X14438Y71586D01*
X13946Y70398D01*
X20154D01*
Y74274D01*
D02*
G37*
G36*
X121260Y84689D02*
X120579D01*
Y82587D01*
X122681D01*
Y83268D01*
X122573Y83811D01*
X122265Y84272D01*
X121804Y84581D01*
X121260Y84689D01*
D02*
G37*
G36*
X120326Y126846D02*
X117642D01*
Y119437D01*
X118504D01*
X119201Y119576D01*
X119793Y119971D01*
X120188Y120562D01*
X120326Y121260D01*
Y126846D01*
D02*
G37*
G36*
X75272Y131768D02*
X71796D01*
Y126181D01*
X71950Y125407D01*
X72388Y124750D01*
X73045Y124312D01*
X73819Y124158D01*
X75272D01*
Y131768D01*
D02*
G37*
G36*
X81748D02*
X78272D01*
Y124158D01*
X79724D01*
X80499Y124312D01*
X81155Y124750D01*
X81594Y125407D01*
X81748Y126181D01*
Y131768D01*
D02*
G37*
G36*
X24213Y115389D02*
X19095D01*
X17705Y115252D01*
X16369Y114847D01*
X15138Y114189D01*
X14059Y113303D01*
X13174Y112224D01*
X12516Y110993D01*
X12111Y109657D01*
X11974Y108268D01*
X12111Y106879D01*
X12516Y105543D01*
X13174Y104312D01*
X14059Y103233D01*
X15138Y102347D01*
X16369Y101689D01*
X17705Y101284D01*
X19095Y101147D01*
X24213D01*
X25602Y101284D01*
X26938Y101689D01*
X28169Y102347D01*
X29248Y103233D01*
X30134Y104312D01*
X30792Y105543D01*
X31197Y106879D01*
X31334Y108268D01*
X31197Y109657D01*
X30792Y110993D01*
X30134Y112224D01*
X29248Y113303D01*
X28169Y114189D01*
X26938Y114847D01*
X25602Y115252D01*
X24213Y115389D01*
D02*
G37*
G36*
X131890Y173455D02*
X130693Y173337D01*
X129543Y172988D01*
X128483Y172421D01*
X127554Y171659D01*
X126791Y170729D01*
X126225Y169669D01*
X125876Y168519D01*
X125758Y167323D01*
Y157480D01*
X125876Y156284D01*
X126225Y155134D01*
X126791Y154074D01*
X127554Y153144D01*
X146851Y133848D01*
Y130916D01*
X126004Y110069D01*
X122078D01*
Y111024D01*
X121956Y111949D01*
X121599Y112811D01*
X121031Y113551D01*
X120291Y114119D01*
X119429Y114476D01*
X118504Y114597D01*
X113780D01*
X112855Y114476D01*
X111993Y114119D01*
X111252Y113551D01*
X110685Y112811D01*
X110327Y111949D01*
X110206Y111024D01*
Y105390D01*
X110128Y105133D01*
X110010Y103937D01*
X110128Y102741D01*
X110206Y102484D01*
Y96850D01*
X110327Y95925D01*
X110685Y95063D01*
X111252Y94323D01*
X111993Y93755D01*
X112855Y93398D01*
X113780Y93277D01*
X118504D01*
X119429Y93398D01*
X120291Y93755D01*
X120673Y94048D01*
X126133Y88589D01*
Y85711D01*
X126114Y85697D01*
X125601Y85029D01*
X125279Y84250D01*
X125169Y83415D01*
Y80758D01*
X125279Y79923D01*
X125414Y79598D01*
X125136Y79182D01*
X123036D01*
X122848Y79326D01*
X122512Y79465D01*
X122457Y79563D01*
X122374Y80064D01*
X122573Y80362D01*
X122681Y80905D01*
Y81587D01*
X117477D01*
Y80905D01*
X117585Y80362D01*
X117784Y80064D01*
X117701Y79563D01*
X117645Y79465D01*
X117309Y79326D01*
X116651Y78821D01*
X116147Y78163D01*
X115829Y77397D01*
X115721Y76575D01*
Y74212D01*
X115829Y73390D01*
X116147Y72624D01*
X116651Y71966D01*
X117309Y71461D01*
X118076Y71144D01*
X118898Y71036D01*
X121260D01*
X122082Y71144D01*
X122848Y71461D01*
X123036Y71605D01*
X126346D01*
X126782Y71271D01*
X127560Y70948D01*
X128396Y70838D01*
X131447D01*
X132282Y70948D01*
X133060Y71271D01*
X133728Y71784D01*
X134241Y72452D01*
X134563Y73230D01*
X134673Y74065D01*
Y76722D01*
X134563Y77557D01*
X134241Y78336D01*
X133931Y78740D01*
X134241Y79145D01*
X134563Y79923D01*
X134673Y80758D01*
Y83415D01*
X134563Y84250D01*
X134241Y85029D01*
X133728Y85697D01*
X133710Y85711D01*
Y90158D01*
X133710Y90158D01*
X133580Y91138D01*
X133202Y92052D01*
X132600Y92836D01*
X128093Y97343D01*
X128285Y97805D01*
X128543D01*
X129740Y97923D01*
X130890Y98272D01*
X131950Y98839D01*
X132879Y99601D01*
X159459Y126181D01*
X175984D01*
Y147441D01*
X150601D01*
X138022Y160020D01*
Y163370D01*
X141390D01*
Y167323D01*
Y171275D01*
X137937D01*
Y170015D01*
X137437Y169890D01*
X136988Y170729D01*
X136226Y171659D01*
X135296Y172421D01*
X134236Y172988D01*
X133086Y173337D01*
X131890Y173455D01*
D02*
G37*
G36*
X114642Y126846D02*
X111957D01*
Y121260D01*
X112096Y120562D01*
X112491Y119971D01*
X113082Y119576D01*
X113780Y119437D01*
X114642D01*
Y126846D01*
D02*
G37*
%LPD*%
D10*
X67323Y103937D02*
G03*
X68898Y102362I1575J0D01*
G01*
X76772D02*
X102362Y76772D01*
X43307Y127953D02*
X67323Y103937D01*
X68898Y102362D02*
X76772D01*
X41339Y127953D02*
X43307D01*
X21654D02*
X41339D01*
X80709Y167323D01*
Y181102D01*
X152559Y136811D02*
X161417D01*
X131890Y157480D02*
X152559Y136811D01*
X131890Y157480D02*
Y167323D01*
X116142Y103937D02*
X128543D01*
X161417Y136811D01*
X177165Y70472D02*
Y81693D01*
X161417Y97441D02*
X177165Y81693D01*
D11*
X76772Y99016D02*
D03*
Y133268D02*
D03*
D12*
X101969Y62992D02*
D03*
X95276D02*
D03*
X88583D02*
D03*
X81890D02*
D03*
X75197D02*
D03*
D13*
X88583Y25787D02*
D03*
D14*
X116142Y128346D02*
D03*
Y103937D02*
D03*
D15*
X177165Y70472D02*
D03*
Y51575D02*
D03*
D16*
X129921Y82087D02*
D03*
Y75394D02*
D03*
D17*
X120079Y82087D02*
D03*
Y75394D02*
D03*
D18*
X161417Y136811D02*
D03*
Y97441D02*
D03*
D19*
X116142Y103937D02*
X129921Y90158D01*
Y82087D02*
Y90158D01*
X120079Y75394D02*
X129921D01*
X95276Y62992D02*
X96146Y62122D01*
Y55137D02*
Y62122D01*
Y55137D02*
X100102Y51181D01*
X127953D01*
X147244Y70472D01*
X177165D01*
D20*
X81890Y77953D02*
X82677Y78740D01*
X81890Y62992D02*
Y77953D01*
X102362Y63288D02*
Y76772D01*
X102067Y62992D02*
X102362Y63288D01*
D21*
X141890Y167323D02*
D03*
D22*
X131890D02*
D03*
D23*
X64213Y181102D02*
D03*
X95709D02*
D03*
D24*
X49213D02*
D03*
X80709D02*
D03*
D25*
X21654Y68898D02*
D03*
Y88583D02*
D03*
Y108268D02*
D03*
D26*
Y127953D02*
D03*
D27*
X181102Y15748D02*
D03*
Y181102D02*
D03*
X15748D02*
D03*
Y15748D02*
D03*
D28*
X115075Y45075D02*
D03*
Y41575D02*
D03*
Y38075D02*
D03*
Y34575D02*
D03*
Y31075D02*
D03*
Y27575D02*
D03*
Y24075D02*
D03*
Y20575D02*
D03*
Y17075D02*
D03*
Y13575D02*
D03*
Y10075D02*
D03*
Y6575D02*
D03*
X111575Y45075D02*
D03*
Y41575D02*
D03*
Y38075D02*
D03*
Y34575D02*
D03*
Y31075D02*
D03*
Y27575D02*
D03*
Y24075D02*
D03*
Y20575D02*
D03*
Y17075D02*
D03*
Y13575D02*
D03*
Y10075D02*
D03*
Y6575D02*
D03*
X108075Y45075D02*
D03*
Y6575D02*
D03*
X104575Y45075D02*
D03*
Y6575D02*
D03*
X101075Y45075D02*
D03*
Y6575D02*
D03*
X97575Y45075D02*
D03*
Y6575D02*
D03*
X94075Y45075D02*
D03*
Y6575D02*
D03*
X90575Y45075D02*
D03*
Y6575D02*
D03*
X87075Y45075D02*
D03*
Y6575D02*
D03*
X83575Y45075D02*
D03*
Y6575D02*
D03*
X80075Y45075D02*
D03*
Y6575D02*
D03*
X76575Y45075D02*
D03*
Y6575D02*
D03*
X73075Y45075D02*
D03*
Y6575D02*
D03*
X69575Y45075D02*
D03*
Y6575D02*
D03*
X66075Y45075D02*
D03*
Y41575D02*
D03*
Y38075D02*
D03*
Y34575D02*
D03*
Y31075D02*
D03*
Y27575D02*
D03*
Y24075D02*
D03*
Y20575D02*
D03*
Y17075D02*
D03*
Y13575D02*
D03*
Y10075D02*
D03*
Y6575D02*
D03*
X62575Y45075D02*
D03*
Y41575D02*
D03*
Y38075D02*
D03*
Y34575D02*
D03*
Y31075D02*
D03*
Y27575D02*
D03*
Y24075D02*
D03*
Y20575D02*
D03*
Y17075D02*
D03*
Y13575D02*
D03*
Y10075D02*
D03*
Y6575D02*
D03*
D29*
X82677Y78740D02*
D03*
M02*
