G04 Layer_Physical_Order=2*
G04 Layer_Color=16711680*
%FSLAX25Y25*%
%MOIN*%
G70*
G01*
G75*
%ADD10C,0.06693*%
%ADD21R,0.05906X0.05906*%
%ADD22C,0.05906*%
G04:AMPARAMS|DCode=23|XSize=100mil|YSize=100mil|CornerRadius=12.5mil|HoleSize=0mil|Usage=FLASHONLY|Rotation=90.000|XOffset=0mil|YOffset=0mil|HoleType=Round|Shape=RoundedRectangle|*
%AMROUNDEDRECTD23*
21,1,0.10000,0.07500,0,0,90.0*
21,1,0.07500,0.10000,0,0,90.0*
1,1,0.02500,0.03750,0.03750*
1,1,0.02500,0.03750,-0.03750*
1,1,0.02500,-0.03750,-0.03750*
1,1,0.02500,-0.03750,0.03750*
%
%ADD23ROUNDEDRECTD23*%
%ADD24C,0.10000*%
%ADD25O,0.13780X0.08661*%
%ADD26R,0.13780X0.08661*%
%ADD27C,0.25590*%
%ADD28C,0.02500*%
%ADD29C,0.05000*%
G36*
X174553Y193268D02*
X172969Y192297D01*
X171318Y190887D01*
X169907Y189236D01*
X168773Y187385D01*
X167942Y185379D01*
X167435Y183267D01*
X167383Y182602D01*
X181102D01*
Y181102D01*
X182602D01*
Y167383D01*
X183267Y167435D01*
X185379Y167942D01*
X187385Y168773D01*
X189236Y169907D01*
X190887Y171318D01*
X192297Y172969D01*
X193268Y174553D01*
X193768Y174411D01*
Y22439D01*
X193268Y22298D01*
X192297Y23882D01*
X190887Y25533D01*
X189236Y26943D01*
X187385Y28078D01*
X185379Y28909D01*
X183267Y29416D01*
X182602Y29468D01*
Y15748D01*
X181102D01*
Y14248D01*
X167383D01*
X167435Y13583D01*
X167942Y11472D01*
X168773Y9466D01*
X169907Y7614D01*
X171318Y5963D01*
X172969Y4553D01*
X174553Y3582D01*
X174411Y3082D01*
X22439D01*
X22298Y3582D01*
X23882Y4553D01*
X25533Y5963D01*
X26943Y7614D01*
X28078Y9466D01*
X28909Y11472D01*
X29416Y13583D01*
X29468Y14248D01*
X15748D01*
Y15748D01*
X14248D01*
Y29468D01*
X13583Y29416D01*
X11472Y28909D01*
X9466Y28078D01*
X7614Y26943D01*
X5963Y25533D01*
X4553Y23882D01*
X3582Y22298D01*
X3082Y22439D01*
Y138779D01*
X3082Y138779D01*
Y164370D01*
Y174411D01*
X3582Y174553D01*
X4553Y172969D01*
X5963Y171318D01*
X7614Y169907D01*
X9466Y168773D01*
X11472Y167942D01*
X13583Y167435D01*
X14248Y167383D01*
Y181102D01*
X15748D01*
Y182602D01*
X29468D01*
X29416Y183267D01*
X28909Y185379D01*
X28078Y187385D01*
X26943Y189236D01*
X25533Y190887D01*
X23882Y192297D01*
X22298Y193268D01*
X22439Y193768D01*
X174411D01*
X174553Y193268D01*
D02*
G37*
%LPC*%
G36*
X61075Y46779D02*
X60953Y46697D01*
X60871Y46575D01*
X61075D01*
Y46779D01*
D02*
G37*
G36*
X116575D02*
Y46575D01*
X116779D01*
X116697Y46697D01*
X116575Y46779D01*
D02*
G37*
G36*
X179602Y29468D02*
X178938Y29416D01*
X176826Y28909D01*
X174820Y28078D01*
X172969Y26943D01*
X171318Y25533D01*
X169907Y23882D01*
X168773Y22030D01*
X167942Y20024D01*
X167435Y17913D01*
X167383Y17248D01*
X179602D01*
Y29468D01*
D02*
G37*
G36*
X17248D02*
Y17248D01*
X29468D01*
X29416Y17913D01*
X28909Y20024D01*
X28078Y22030D01*
X26943Y23882D01*
X25533Y25533D01*
X23882Y26943D01*
X22030Y28078D01*
X20024Y28909D01*
X17913Y29416D01*
X17248Y29468D01*
D02*
G37*
G36*
X71575Y46779D02*
X71453Y46697D01*
X71197D01*
X71075Y46779D01*
Y45075D01*
X68075D01*
Y46779D01*
X67953Y46697D01*
X67697D01*
X67575Y46779D01*
Y45075D01*
X64575D01*
Y46779D01*
X64453Y46697D01*
X64197D01*
X64075Y46779D01*
Y45075D01*
X62575D01*
Y43575D01*
X60871D01*
X60953Y43453D01*
Y43197D01*
X60871Y43075D01*
X62575D01*
Y40075D01*
X60871D01*
X60953Y39953D01*
Y39697D01*
X60871Y39575D01*
X62575D01*
Y36575D01*
X60871D01*
X60953Y36453D01*
Y36197D01*
X60871Y36075D01*
X62575D01*
Y33075D01*
X60871D01*
X60953Y32953D01*
Y32697D01*
X60871Y32575D01*
X62575D01*
Y29575D01*
X60831D01*
X60911Y29325D01*
X60831Y29075D01*
X62575D01*
Y26075D01*
X60871D01*
X60953Y25953D01*
Y25697D01*
X60871Y25575D01*
X62575D01*
Y22575D01*
X60871D01*
X60953Y22453D01*
Y22197D01*
X60871Y22075D01*
X62575D01*
Y19075D01*
X60871D01*
X60953Y18953D01*
Y18697D01*
X60871Y18575D01*
X62575D01*
Y15575D01*
X60871D01*
X60953Y15453D01*
Y15197D01*
X60871Y15075D01*
X62575D01*
Y12075D01*
X60871D01*
X60953Y11953D01*
Y11697D01*
X60871Y11575D01*
X62575D01*
Y8575D01*
X60871D01*
X60953Y8453D01*
Y8197D01*
X60871Y8075D01*
X62575D01*
Y6575D01*
X64075D01*
Y4871D01*
X64197Y4953D01*
X64453D01*
X64575Y4871D01*
Y6575D01*
X67575D01*
Y4871D01*
X67697Y4953D01*
X67953D01*
X68075Y4871D01*
Y6575D01*
X71075D01*
Y4871D01*
X71197Y4953D01*
X71453D01*
X71575Y4871D01*
Y6575D01*
Y8279D01*
X71453Y8197D01*
X71197D01*
X70453Y8694D01*
X69575Y8869D01*
X68697Y8694D01*
X68269Y8408D01*
X67908Y8768D01*
X68194Y9197D01*
X68369Y10075D01*
X68194Y10953D01*
X67697Y11697D01*
Y11953D01*
X67779Y12075D01*
X66075D01*
Y15075D01*
X67779D01*
X67697Y15197D01*
Y15453D01*
X67779Y15575D01*
X66075D01*
Y18575D01*
X67779D01*
X67697Y18697D01*
Y18953D01*
X67779Y19075D01*
X66075D01*
Y22075D01*
X67779D01*
X67697Y22197D01*
Y22453D01*
X67779Y22575D01*
X66075D01*
Y25575D01*
X67779D01*
X67697Y25697D01*
Y25953D01*
X67779Y26075D01*
X66075D01*
Y29075D01*
X67779D01*
X67697Y29197D01*
Y29453D01*
X67779Y29575D01*
X66075D01*
Y32575D01*
X67779D01*
X67697Y32697D01*
Y32953D01*
X67779Y33075D01*
X66075D01*
Y36075D01*
X67779D01*
X67697Y36197D01*
Y36453D01*
X67779Y36575D01*
X66075D01*
Y39575D01*
X67779D01*
X67697Y39697D01*
Y39953D01*
X68194Y40697D01*
X68369Y41575D01*
X68194Y42453D01*
X67908Y42881D01*
X68269Y43242D01*
X68697Y42955D01*
X69575Y42781D01*
X70453Y42955D01*
X70958Y43293D01*
X71325Y43411D01*
X71575Y43331D01*
Y45075D01*
Y46779D01*
D02*
G37*
G36*
X85575D02*
X85453Y46697D01*
X85197D01*
X85075Y46779D01*
Y45075D01*
Y43371D01*
X85197Y43453D01*
X85453D01*
X85575Y43371D01*
Y45075D01*
Y46779D01*
D02*
G37*
G36*
X89075D02*
X88953Y46697D01*
X88697D01*
X88575Y46779D01*
Y45075D01*
Y43371D01*
X88697Y43453D01*
X88953D01*
X89075Y43371D01*
Y45075D01*
Y46779D01*
D02*
G37*
G36*
X82075D02*
X81953Y46697D01*
X81697D01*
X81575Y46779D01*
Y45075D01*
Y43371D01*
X81697Y43453D01*
X81953D01*
X82075Y43371D01*
Y45075D01*
Y46779D01*
D02*
G37*
G36*
X75075D02*
X74953Y46697D01*
X74697D01*
X74575Y46779D01*
Y45075D01*
Y43331D01*
X74825Y43411D01*
X75075Y43331D01*
Y45075D01*
Y46779D01*
D02*
G37*
G36*
X78575D02*
X78453Y46697D01*
X78197D01*
X78075Y46779D01*
Y45075D01*
Y43331D01*
X78325Y43411D01*
X78575Y43331D01*
Y45075D01*
Y46779D01*
D02*
G37*
G36*
X103075Y8279D02*
X102953Y8197D01*
X102697D01*
X102575Y8279D01*
Y6575D01*
Y4871D01*
X102697Y4953D01*
X102953D01*
X103075Y4871D01*
Y6575D01*
Y8279D01*
D02*
G37*
G36*
X78575D02*
X78453Y8197D01*
X78197D01*
X78075Y8279D01*
Y6575D01*
Y4871D01*
X78197Y4953D01*
X78453D01*
X78575Y4871D01*
Y6575D01*
Y8279D01*
D02*
G37*
G36*
X82075D02*
X81953Y8197D01*
X81697D01*
X81575Y8279D01*
Y6575D01*
Y4871D01*
X81697Y4953D01*
X81953D01*
X82075Y4871D01*
Y6575D01*
Y8279D01*
D02*
G37*
G36*
X75075D02*
X74953Y8197D01*
X74697D01*
X74575Y8279D01*
Y6575D01*
Y4871D01*
X74697Y4953D01*
X74953D01*
X75075Y4871D01*
Y6575D01*
Y8279D01*
D02*
G37*
G36*
X61075Y5075D02*
X60871D01*
X60953Y4953D01*
X61075Y4871D01*
Y5075D01*
D02*
G37*
G36*
X116779D02*
X116575D01*
Y4871D01*
X116697Y4953D01*
X116779Y5075D01*
D02*
G37*
G36*
X96075Y8279D02*
X95953Y8197D01*
X95697D01*
X95575Y8279D01*
Y6575D01*
Y4871D01*
X95697Y4953D01*
X95953D01*
X96075Y4871D01*
Y6575D01*
Y8279D01*
D02*
G37*
G36*
X99575D02*
X99453Y8197D01*
X99197D01*
X99075Y8279D01*
Y6575D01*
Y4871D01*
X99197Y4953D01*
X99453D01*
X99575Y4871D01*
Y6575D01*
Y8279D01*
D02*
G37*
G36*
X92575D02*
X92453Y8197D01*
X92197D01*
X92075Y8279D01*
Y6575D01*
Y4871D01*
X92197Y4953D01*
X92453D01*
X92575Y4871D01*
Y6575D01*
Y8279D01*
D02*
G37*
G36*
X85575D02*
X85453Y8197D01*
X85197D01*
X85075Y8279D01*
Y6575D01*
Y4871D01*
X85197Y4953D01*
X85453D01*
X85575Y4871D01*
Y6575D01*
Y8279D01*
D02*
G37*
G36*
X89075D02*
X88953Y8197D01*
X88697D01*
X88575Y8279D01*
Y6575D01*
Y4871D01*
X88697Y4953D01*
X88953D01*
X89075Y4871D01*
Y6575D01*
Y8279D01*
D02*
G37*
G36*
X179602Y179602D02*
X167383D01*
X167435Y178938D01*
X167942Y176826D01*
X168773Y174820D01*
X169907Y172969D01*
X171318Y171318D01*
X172969Y169907D01*
X174820Y168773D01*
X176826Y167942D01*
X178938Y167435D01*
X179602Y167383D01*
Y179602D01*
D02*
G37*
G36*
X145843Y171275D02*
X142390D01*
Y167823D01*
X145843D01*
Y171275D01*
D02*
G37*
G36*
X29468Y179602D02*
X17248D01*
Y167383D01*
X17913Y167435D01*
X20024Y167942D01*
X22030Y168773D01*
X23882Y169907D01*
X25533Y171318D01*
X26943Y172969D01*
X28078Y174820D01*
X28909Y176826D01*
X29416Y178938D01*
X29468Y179602D01*
D02*
G37*
G36*
X31299Y135039D02*
X12008D01*
Y120866D01*
X31299D01*
Y135039D01*
D02*
G37*
G36*
X145843Y166823D02*
X142390D01*
Y163370D01*
X145843D01*
Y166823D01*
D02*
G37*
G36*
X94209Y187146D02*
X91959D01*
X91081Y186972D01*
X90336Y186475D01*
X89839Y185730D01*
X89665Y184852D01*
Y182602D01*
X94209D01*
Y187146D01*
D02*
G37*
G36*
X99459D02*
X97209D01*
Y182602D01*
X101753D01*
Y184852D01*
X101578Y185730D01*
X101081Y186475D01*
X100337Y186972D01*
X99459Y187146D01*
D02*
G37*
G36*
X101753Y179602D02*
X97209D01*
Y175058D01*
X99459D01*
X100337Y175233D01*
X101081Y175730D01*
X101578Y176474D01*
X101753Y177352D01*
Y179602D01*
D02*
G37*
G36*
X80709Y188896D02*
X79188Y188746D01*
X77726Y188303D01*
X76379Y187582D01*
X75198Y186613D01*
X74229Y185432D01*
X73508Y184085D01*
X73065Y182623D01*
X72915Y181102D01*
X73065Y179582D01*
X73508Y178120D01*
X74229Y176773D01*
X75198Y175592D01*
X76379Y174622D01*
X77726Y173902D01*
X79188Y173459D01*
X80709Y173309D01*
X82229Y173459D01*
X83691Y173902D01*
X85038Y174622D01*
X86219Y175592D01*
X87189Y176773D01*
X87909Y178120D01*
X88352Y179582D01*
X88502Y181102D01*
X88352Y182623D01*
X87909Y184085D01*
X87189Y185432D01*
X86219Y186613D01*
X85038Y187582D01*
X83691Y188303D01*
X82229Y188746D01*
X80709Y188896D01*
D02*
G37*
G36*
X94209Y179602D02*
X89665D01*
Y177352D01*
X89839Y176474D01*
X90336Y175730D01*
X91081Y175233D01*
X91959Y175058D01*
X94209D01*
Y179602D01*
D02*
G37*
G36*
X49213Y188896D02*
X47692Y188746D01*
X46230Y188303D01*
X44883Y187582D01*
X43702Y186613D01*
X42733Y185432D01*
X42012Y184085D01*
X41569Y182623D01*
X41419Y181102D01*
X41569Y179582D01*
X42012Y178120D01*
X42733Y176773D01*
X43081Y176348D01*
Y126556D01*
X30925Y114400D01*
X27774D01*
X26938Y114847D01*
X25602Y115252D01*
X24213Y115389D01*
X19095D01*
X17705Y115252D01*
X16369Y114847D01*
X15138Y114189D01*
X14059Y113303D01*
X13174Y112224D01*
X12516Y110993D01*
X12111Y109657D01*
X11974Y108268D01*
X12111Y106879D01*
X12516Y105543D01*
X13174Y104312D01*
X14059Y103233D01*
X15138Y102347D01*
X16369Y101689D01*
X17705Y101284D01*
X19095Y101147D01*
X24213D01*
X25602Y101284D01*
X26938Y101689D01*
X27774Y102136D01*
X33465D01*
X34661Y102254D01*
X35811Y102603D01*
X36871Y103169D01*
X37800Y103932D01*
X53549Y119680D01*
X54311Y120609D01*
X54878Y121669D01*
X55227Y122819D01*
X55344Y124016D01*
Y176348D01*
X55693Y176773D01*
X55935Y177225D01*
X56451Y177131D01*
X56560Y176307D01*
X56963Y175332D01*
X57606Y174495D01*
X58081Y174131D01*
Y119902D01*
X32893Y94714D01*
X27774D01*
X26938Y95161D01*
X25602Y95567D01*
X24213Y95704D01*
X19095D01*
X17705Y95567D01*
X16369Y95161D01*
X15138Y94503D01*
X14059Y93618D01*
X13174Y92539D01*
X12516Y91308D01*
X12111Y89972D01*
X11974Y88583D01*
X12111Y87193D01*
X12516Y85858D01*
X13174Y84626D01*
X14059Y83547D01*
X15138Y82662D01*
X16369Y82004D01*
X17705Y81599D01*
X19095Y81462D01*
X24213D01*
X25602Y81599D01*
X26938Y82004D01*
X27774Y82451D01*
X35433D01*
X36629Y82569D01*
X37780Y82917D01*
X38840Y83484D01*
X39769Y84247D01*
X68549Y113026D01*
X69311Y113955D01*
X69878Y115016D01*
X70227Y116166D01*
X70345Y117362D01*
Y174131D01*
X70820Y174495D01*
X71462Y175332D01*
X71865Y176307D01*
X72003Y177352D01*
Y184852D01*
X71865Y185898D01*
X71462Y186873D01*
X70820Y187709D01*
X69983Y188352D01*
X69008Y188755D01*
X67963Y188893D01*
X60463D01*
X59417Y188755D01*
X58442Y188352D01*
X57606Y187709D01*
X56963Y186873D01*
X56560Y185898D01*
X56451Y185074D01*
X55935Y184980D01*
X55693Y185432D01*
X54723Y186613D01*
X53542Y187582D01*
X52195Y188303D01*
X50733Y188746D01*
X49213Y188896D01*
D02*
G37*
G36*
X103075Y46779D02*
X102953Y46697D01*
X102697D01*
X102575Y46779D01*
Y45075D01*
Y43371D01*
X102697Y43453D01*
X102953D01*
X103075Y43371D01*
Y45075D01*
Y46779D01*
D02*
G37*
G36*
X113575D02*
X113453Y46697D01*
X113197D01*
X113075Y46779D01*
Y45075D01*
X110075D01*
Y46779D01*
X109953Y46697D01*
X109697D01*
X109575Y46779D01*
Y45075D01*
X106575D01*
Y46779D01*
X106453Y46697D01*
X106197D01*
X106075Y46779D01*
Y45075D01*
Y43371D01*
X106197Y43453D01*
X106453D01*
X107197Y42955D01*
X108075Y42781D01*
X108953Y42955D01*
X109381Y43242D01*
X109742Y42881D01*
X109455Y42453D01*
X109281Y41575D01*
X109455Y40697D01*
X109953Y39953D01*
Y39697D01*
X109871Y39575D01*
X111575D01*
Y36575D01*
X109871D01*
X109953Y36453D01*
Y36197D01*
X109871Y36075D01*
X111575D01*
Y33075D01*
X109871D01*
X109953Y32953D01*
Y32697D01*
X109871Y32575D01*
X111575D01*
Y29575D01*
X109871D01*
X109953Y29453D01*
Y29197D01*
X109871Y29075D01*
X111575D01*
Y26075D01*
X109871D01*
X109953Y25953D01*
Y25697D01*
X109871Y25575D01*
X111575D01*
Y22575D01*
X109871D01*
X109953Y22453D01*
Y22197D01*
X109871Y22075D01*
X111575D01*
Y19075D01*
X109871D01*
X109953Y18953D01*
Y18697D01*
X109871Y18575D01*
X111575D01*
Y15575D01*
X109871D01*
X109953Y15453D01*
Y15197D01*
X109871Y15075D01*
X111575D01*
Y12075D01*
X109871D01*
X109953Y11953D01*
Y11697D01*
X109455Y10953D01*
X109281Y10075D01*
X109455Y9197D01*
X109742Y8768D01*
X109381Y8408D01*
X108953Y8694D01*
X108075Y8869D01*
X107197Y8694D01*
X106453Y8197D01*
X106197D01*
X106075Y8279D01*
Y6575D01*
Y4871D01*
X106197Y4953D01*
X106453D01*
X106575Y4871D01*
Y6575D01*
X109575D01*
Y4871D01*
X109697Y4953D01*
X109953D01*
X110075Y4871D01*
Y6575D01*
X113075D01*
Y4871D01*
X113197Y4953D01*
X113453D01*
X113575Y4871D01*
Y6575D01*
X115075D01*
Y8075D01*
X116779D01*
X116697Y8197D01*
Y8453D01*
X116779Y8575D01*
X115075D01*
Y11575D01*
X116779D01*
X116697Y11697D01*
Y11953D01*
X116779Y12075D01*
X115075D01*
Y15075D01*
X116779D01*
X116697Y15197D01*
Y15453D01*
X116779Y15575D01*
X115075D01*
Y18575D01*
X116779D01*
X116697Y18697D01*
Y18953D01*
X116779Y19075D01*
X115075D01*
Y22075D01*
X116779D01*
X116697Y22197D01*
Y22453D01*
X116779Y22575D01*
X115075D01*
Y25575D01*
X116779D01*
X116697Y25697D01*
Y25953D01*
X116779Y26075D01*
X115075D01*
Y29075D01*
X116779D01*
X116697Y29197D01*
Y29453D01*
X116779Y29575D01*
X115075D01*
Y32575D01*
X116779D01*
X116697Y32697D01*
Y32953D01*
X116779Y33075D01*
X115075D01*
Y36075D01*
X116779D01*
X116697Y36197D01*
Y36453D01*
X116779Y36575D01*
X115075D01*
Y39575D01*
X116779D01*
X116697Y39697D01*
Y39953D01*
X116779Y40075D01*
X115075D01*
Y43075D01*
X116779D01*
X116697Y43197D01*
Y43453D01*
X116779Y43575D01*
X115075D01*
Y45075D01*
X113575D01*
Y46779D01*
D02*
G37*
G36*
X99575D02*
X99453Y46697D01*
X99197D01*
X99075Y46779D01*
Y45075D01*
Y43371D01*
X99197Y43453D01*
X99453D01*
X99575Y43371D01*
Y45075D01*
Y46779D01*
D02*
G37*
G36*
X92575D02*
X92453Y46697D01*
X92197D01*
X92075Y46779D01*
Y45075D01*
Y43371D01*
X92197Y43453D01*
X92453D01*
X92575Y43371D01*
Y45075D01*
Y46779D01*
D02*
G37*
G36*
X96075D02*
X95953Y46697D01*
X95697D01*
X95575Y46779D01*
Y45075D01*
Y43371D01*
X95697Y43453D01*
X95953D01*
X96075Y43371D01*
Y45075D01*
Y46779D01*
D02*
G37*
G36*
X24213Y74274D02*
X23154D01*
Y70398D01*
X29361D01*
X28869Y71586D01*
X28015Y72699D01*
X26901Y73554D01*
X25604Y74091D01*
X24213Y74274D01*
D02*
G37*
G36*
X131890Y173455D02*
X130693Y173337D01*
X129543Y172988D01*
X128483Y172421D01*
X127554Y171659D01*
X126791Y170729D01*
X126225Y169669D01*
X125876Y168519D01*
X125758Y167323D01*
Y120650D01*
X115570Y110463D01*
X108268D01*
X107071Y110345D01*
X105921Y109996D01*
X104861Y109429D01*
X103932Y108667D01*
X78341Y83076D01*
X77579Y82147D01*
X77012Y81087D01*
X76663Y79936D01*
X76545Y78740D01*
X76663Y77544D01*
X77012Y76394D01*
X77579Y75333D01*
X78341Y74404D01*
X79270Y73642D01*
X80331Y73075D01*
X81481Y72726D01*
X82677Y72608D01*
X83873Y72726D01*
X85024Y73075D01*
X86084Y73642D01*
X87013Y74404D01*
X110808Y98199D01*
X118110D01*
X119307Y98317D01*
X120457Y98666D01*
X121517Y99232D01*
X122446Y99995D01*
X136226Y113774D01*
X136988Y114704D01*
X137555Y115764D01*
X137904Y116914D01*
X138022Y118110D01*
Y163370D01*
X141390D01*
Y167323D01*
Y171275D01*
X137937D01*
Y170015D01*
X137437Y169890D01*
X136988Y170729D01*
X136226Y171659D01*
X135296Y172421D01*
X134236Y172988D01*
X133086Y173337D01*
X131890Y173455D01*
D02*
G37*
G36*
X20154Y74274D02*
X19095D01*
X17703Y74091D01*
X16406Y73554D01*
X15293Y72699D01*
X14438Y71586D01*
X13946Y70398D01*
X20154D01*
Y74274D01*
D02*
G37*
G36*
Y67398D02*
X13946D01*
X14438Y66209D01*
X15293Y65096D01*
X16406Y64241D01*
X17703Y63704D01*
X19095Y63521D01*
X20154D01*
Y67398D01*
D02*
G37*
G36*
X29361D02*
X23154D01*
Y63521D01*
X24213D01*
X25604Y63704D01*
X26901Y64241D01*
X28015Y65096D01*
X28869Y66209D01*
X29361Y67398D01*
D02*
G37*
%LPD*%
D10*
X131890Y118110D02*
Y167323D01*
X118110Y104331D02*
X131890Y118110D01*
X108268Y104331D02*
X118110D01*
X82677Y78740D02*
X108268Y104331D01*
X21654Y88583D02*
X35433D01*
X64213Y117362D01*
Y181102D01*
X21654Y108268D02*
X33465D01*
X49213Y124016D01*
Y181102D01*
D21*
X141890Y167323D02*
D03*
D22*
X131890D02*
D03*
D23*
X64213Y181102D02*
D03*
X95709D02*
D03*
D24*
X49213D02*
D03*
X80709D02*
D03*
D25*
X21654Y68898D02*
D03*
Y88583D02*
D03*
Y108268D02*
D03*
D26*
Y127953D02*
D03*
D27*
X181102Y15748D02*
D03*
Y181102D02*
D03*
X15748D02*
D03*
Y15748D02*
D03*
D28*
X115075Y45075D02*
D03*
Y41575D02*
D03*
Y38075D02*
D03*
Y34575D02*
D03*
Y31075D02*
D03*
Y27575D02*
D03*
Y24075D02*
D03*
Y20575D02*
D03*
Y17075D02*
D03*
Y13575D02*
D03*
Y10075D02*
D03*
Y6575D02*
D03*
X111575Y45075D02*
D03*
Y41575D02*
D03*
Y38075D02*
D03*
Y34575D02*
D03*
Y31075D02*
D03*
Y27575D02*
D03*
Y24075D02*
D03*
Y20575D02*
D03*
Y17075D02*
D03*
Y13575D02*
D03*
Y10075D02*
D03*
Y6575D02*
D03*
X108075Y45075D02*
D03*
Y6575D02*
D03*
X104575Y45075D02*
D03*
Y6575D02*
D03*
X101075Y45075D02*
D03*
Y6575D02*
D03*
X97575Y45075D02*
D03*
Y6575D02*
D03*
X94075Y45075D02*
D03*
Y6575D02*
D03*
X90575Y45075D02*
D03*
Y6575D02*
D03*
X87075Y45075D02*
D03*
Y6575D02*
D03*
X83575Y45075D02*
D03*
Y6575D02*
D03*
X80075Y45075D02*
D03*
Y6575D02*
D03*
X76575Y45075D02*
D03*
Y6575D02*
D03*
X73075Y45075D02*
D03*
Y6575D02*
D03*
X69575Y45075D02*
D03*
Y6575D02*
D03*
X66075Y45075D02*
D03*
Y41575D02*
D03*
Y38075D02*
D03*
Y34575D02*
D03*
Y31075D02*
D03*
Y27575D02*
D03*
Y24075D02*
D03*
Y20575D02*
D03*
Y17075D02*
D03*
Y13575D02*
D03*
Y10075D02*
D03*
Y6575D02*
D03*
X62575Y45075D02*
D03*
Y41575D02*
D03*
Y38075D02*
D03*
Y34575D02*
D03*
Y31075D02*
D03*
Y27575D02*
D03*
Y24075D02*
D03*
Y20575D02*
D03*
Y17075D02*
D03*
Y13575D02*
D03*
Y10075D02*
D03*
Y6575D02*
D03*
D29*
X82677Y78740D02*
D03*
M02*
