G04 Layer_Color=16711935*
%FSLAX25Y25*%
%MOIN*%
G70*
G01*
G75*
%ADD43R,0.06706X0.06706*%
%ADD44C,0.06706*%
G04:AMPARAMS|DCode=45|XSize=108mil|YSize=108mil|CornerRadius=16.5mil|HoleSize=0mil|Usage=FLASHONLY|Rotation=90.000|XOffset=0mil|YOffset=0mil|HoleType=Round|Shape=RoundedRectangle|*
%AMROUNDEDRECTD45*
21,1,0.10800,0.07500,0,0,90.0*
21,1,0.07500,0.10800,0,0,90.0*
1,1,0.03300,0.03750,0.03750*
1,1,0.03300,0.03750,-0.03750*
1,1,0.03300,-0.03750,-0.03750*
1,1,0.03300,-0.03750,0.03750*
%
%ADD45ROUNDEDRECTD45*%
%ADD46C,0.10800*%
%ADD47O,0.14579X0.09461*%
%ADD48R,0.14579X0.09461*%
%ADD49C,0.26391*%
%ADD50C,0.03300*%
%ADD51C,0.05800*%
D43*
X141890Y167323D02*
D03*
D44*
X131890D02*
D03*
D45*
X64213Y181102D02*
D03*
X95709D02*
D03*
D46*
X49213D02*
D03*
X80709D02*
D03*
D47*
X21654Y68898D02*
D03*
Y88583D02*
D03*
Y108268D02*
D03*
D48*
Y127953D02*
D03*
D49*
X181102Y15748D02*
D03*
Y181102D02*
D03*
X15748D02*
D03*
Y15748D02*
D03*
D50*
X115075Y45075D02*
D03*
Y41575D02*
D03*
Y38075D02*
D03*
Y34575D02*
D03*
Y31075D02*
D03*
Y27575D02*
D03*
Y24075D02*
D03*
Y20575D02*
D03*
Y17075D02*
D03*
Y13575D02*
D03*
Y10075D02*
D03*
Y6575D02*
D03*
X111575Y45075D02*
D03*
Y41575D02*
D03*
Y38075D02*
D03*
Y34575D02*
D03*
Y31075D02*
D03*
Y27575D02*
D03*
Y24075D02*
D03*
Y20575D02*
D03*
Y17075D02*
D03*
Y13575D02*
D03*
Y10075D02*
D03*
Y6575D02*
D03*
X108075Y45075D02*
D03*
Y6575D02*
D03*
X104575Y45075D02*
D03*
Y6575D02*
D03*
X101075Y45075D02*
D03*
Y6575D02*
D03*
X97575Y45075D02*
D03*
Y6575D02*
D03*
X94075Y45075D02*
D03*
Y6575D02*
D03*
X90575Y45075D02*
D03*
Y6575D02*
D03*
X87075Y45075D02*
D03*
Y6575D02*
D03*
X83575Y45075D02*
D03*
Y6575D02*
D03*
X80075Y45075D02*
D03*
Y6575D02*
D03*
X76575Y45075D02*
D03*
Y6575D02*
D03*
X73075Y45075D02*
D03*
Y6575D02*
D03*
X69575Y45075D02*
D03*
Y6575D02*
D03*
X66075Y45075D02*
D03*
Y41575D02*
D03*
Y38075D02*
D03*
Y34575D02*
D03*
Y31075D02*
D03*
Y27575D02*
D03*
Y24075D02*
D03*
Y20575D02*
D03*
Y17075D02*
D03*
Y13575D02*
D03*
Y10075D02*
D03*
Y6575D02*
D03*
X62575Y45075D02*
D03*
Y41575D02*
D03*
Y38075D02*
D03*
Y34575D02*
D03*
Y31075D02*
D03*
Y27575D02*
D03*
Y24075D02*
D03*
Y20575D02*
D03*
Y17075D02*
D03*
Y13575D02*
D03*
Y10075D02*
D03*
Y6575D02*
D03*
D51*
X82677Y78740D02*
D03*
M02*
