G04 Layer_Color=32896*
%FSLAX25Y25*%
%MOIN*%
G70*
G01*
G75*
%ADD31C,0.01000*%
D31*
X143592Y123759D02*
Y127258D01*
X141842D01*
X141259Y126675D01*
Y125509D01*
X141842Y124926D01*
X143592D01*
X140093Y127258D02*
Y124926D01*
Y126092D01*
X139510Y126675D01*
X138927Y127258D01*
X138344D01*
X134845Y124926D02*
X136011D01*
X136594Y125509D01*
Y126675D01*
X136011Y127258D01*
X134845D01*
X134261Y126675D01*
Y126092D01*
X136594D01*
X132512Y127841D02*
Y127258D01*
X133095D01*
X131929D01*
X132512D01*
Y125509D01*
X131929Y124926D01*
X128430D02*
X129596D01*
X130179Y125509D01*
Y126675D01*
X129596Y127258D01*
X128430D01*
X127847Y126675D01*
Y126092D01*
X130179D01*
X126681Y124926D02*
Y127258D01*
X124931D01*
X124348Y126675D01*
Y124926D01*
X120849Y128425D02*
Y124926D01*
X122599D01*
X123182Y125509D01*
Y126675D01*
X122599Y127258D01*
X120849D01*
X119100D02*
X117933D01*
X117350Y126675D01*
Y124926D01*
X119100D01*
X119683Y125509D01*
X119100Y126092D01*
X117350D01*
X116184Y124926D02*
Y125509D01*
X115601D01*
Y124926D01*
X116184D01*
X110936Y127258D02*
X112685D01*
X113268Y126675D01*
Y125509D01*
X112685Y124926D01*
X110936D01*
X109186D02*
X108020D01*
X107437Y125509D01*
Y126675D01*
X108020Y127258D01*
X109186D01*
X109769Y126675D01*
Y125509D01*
X109186Y124926D01*
X106271D02*
Y127258D01*
X105687D01*
X105104Y126675D01*
Y124926D01*
Y126675D01*
X104521Y127258D01*
X103938Y126675D01*
Y124926D01*
X102772D02*
X100439Y127258D01*
X99273Y124926D02*
X97523D01*
X96940Y125509D01*
X97523Y126092D01*
X98690D01*
X99273Y126675D01*
X98690Y127258D01*
X96940D01*
X95774Y124926D02*
Y127258D01*
X95191D01*
X94608Y126675D01*
Y124926D01*
Y126675D01*
X94024Y127258D01*
X93441Y126675D01*
Y124926D01*
X92275Y123759D02*
Y127258D01*
X90526D01*
X89942Y126675D01*
Y125509D01*
X90526Y124926D01*
X92275D01*
X88776D02*
X87027D01*
X86444Y125509D01*
X87027Y126092D01*
X88193D01*
X88776Y126675D01*
X88193Y127258D01*
X86444D01*
X85277D02*
Y125509D01*
X84694Y124926D01*
X82945D01*
Y127258D01*
X81778Y128425D02*
Y124926D01*
X80029D01*
X79446Y125509D01*
Y126092D01*
Y126675D01*
X80029Y127258D01*
X81778D01*
X78280D02*
Y124926D01*
Y126092D01*
X77696Y126675D01*
X77113Y127258D01*
X76530D01*
X73031Y124926D02*
X74198D01*
X74781Y125509D01*
Y126675D01*
X74198Y127258D01*
X73031D01*
X72448Y126675D01*
Y126092D01*
X74781D01*
X70699Y127258D02*
X69532D01*
X68949Y126675D01*
Y124926D01*
X70699D01*
X71282Y125509D01*
X70699Y126092D01*
X68949D01*
X67783Y124926D02*
Y128425D01*
Y126092D02*
X66034Y127258D01*
X67783Y126092D02*
X66034Y124926D01*
X63701D02*
X62535D01*
X61952Y125509D01*
Y126675D01*
X62535Y127258D01*
X63701D01*
X64284Y126675D01*
Y125509D01*
X63701Y124926D01*
X60785Y127258D02*
Y125509D01*
X60202Y124926D01*
X58453D01*
Y127258D01*
X56703Y127841D02*
Y127258D01*
X57286D01*
X56120D01*
X56703D01*
Y125509D01*
X56120Y124926D01*
X140135Y139555D02*
X138468Y136223D01*
X136802Y139555D01*
X135136Y136223D02*
X133470D01*
X134303D01*
Y141221D01*
X135136Y140388D01*
X130971Y136223D02*
Y137056D01*
X130138D01*
Y136223D01*
X130971D01*
X126805Y140388D02*
X125972Y141221D01*
X124306D01*
X123473Y140388D01*
Y137056D01*
X124306Y136223D01*
X125972D01*
X126805Y137056D01*
Y140388D01*
X116809Y138722D02*
X113477D01*
X103480Y136223D02*
X106812D01*
X103480Y139555D01*
Y140388D01*
X104313Y141221D01*
X105979D01*
X106812Y140388D01*
X101814D02*
X100980Y141221D01*
X99314D01*
X98481Y140388D01*
Y137056D01*
X99314Y136223D01*
X100980D01*
X101814Y137056D01*
Y140388D01*
X96815Y136223D02*
X95149D01*
X95982D01*
Y141221D01*
X96815Y140388D01*
X89318Y141221D02*
X92650D01*
Y138722D01*
X90984Y139555D01*
X90151D01*
X89318Y138722D01*
Y137056D01*
X90151Y136223D01*
X91817D01*
X92650Y137056D01*
X87651Y138722D02*
X84319D01*
X82653Y140388D02*
X81820Y141221D01*
X80154D01*
X79321Y140388D01*
Y137056D01*
X80154Y136223D01*
X81820D01*
X82653Y137056D01*
Y140388D01*
X75156Y136223D02*
Y141221D01*
X77655Y138722D01*
X74322D01*
X72656D02*
X69324D01*
X67658Y140388D02*
X66825Y141221D01*
X65159D01*
X64326Y140388D01*
Y137056D01*
X65159Y136223D01*
X66825D01*
X67658Y137056D01*
Y140388D01*
X62660Y137056D02*
X61827Y136223D01*
X60160D01*
X59327Y137056D01*
Y140388D01*
X60160Y141221D01*
X61827D01*
X62660Y140388D01*
Y139555D01*
X61827Y138722D01*
X59327D01*
X154130Y156142D02*
Y150144D01*
X157129D01*
X158129Y151144D01*
Y153143D01*
X157129Y154143D01*
X154130D01*
X149132Y150144D02*
X151131D01*
X152131Y151144D01*
Y153143D01*
X151131Y154143D01*
X149132D01*
X148132Y153143D01*
Y152143D01*
X152131D01*
X146133Y150144D02*
X143134D01*
X142134Y151144D01*
X143134Y152143D01*
X145133D01*
X146133Y153143D01*
X145133Y154143D01*
X142134D01*
X140135Y150144D02*
X138135D01*
X139135D01*
Y154143D01*
X140135D01*
X133137Y148145D02*
X132137D01*
X131137Y149144D01*
Y154143D01*
X134136D01*
X135136Y153143D01*
Y151144D01*
X134136Y150144D01*
X131137D01*
X129138D02*
Y154143D01*
X126139D01*
X125139Y153143D01*
Y150144D01*
X120141D02*
X122140D01*
X123140Y151144D01*
Y153143D01*
X122140Y154143D01*
X120141D01*
X119141Y153143D01*
Y152143D01*
X123140D01*
X113143Y156142D02*
Y150144D01*
X116142D01*
X117142Y151144D01*
Y153143D01*
X116142Y154143D01*
X113143D01*
X105146Y156142D02*
Y150144D01*
X102147D01*
X101147Y151144D01*
Y152143D01*
Y153143D01*
X102147Y154143D01*
X105146D01*
X99148D02*
Y151144D01*
X98148Y150144D01*
X95149D01*
Y149144D01*
X96149Y148145D01*
X97149D01*
X95149Y150144D02*
Y154143D01*
X87152Y148145D02*
Y154143D01*
X84153D01*
X83153Y153143D01*
Y151144D01*
X84153Y150144D01*
X87152D01*
X81154Y154143D02*
Y150144D01*
Y152143D01*
X80154Y153143D01*
X79154Y154143D01*
X78155D01*
X72157Y150144D02*
X74156D01*
X75156Y151144D01*
Y153143D01*
X74156Y154143D01*
X72157D01*
X71157Y153143D01*
Y152143D01*
X75156D01*
X68158Y155142D02*
Y154143D01*
X69157D01*
X67158D01*
X68158D01*
Y151144D01*
X67158Y150144D01*
X61160D02*
X63159D01*
X64159Y151144D01*
Y153143D01*
X63159Y154143D01*
X61160D01*
X60160Y153143D01*
Y152143D01*
X64159D01*
X58161Y150144D02*
Y154143D01*
X55162D01*
X54162Y153143D01*
Y150144D01*
X48164Y156142D02*
Y150144D01*
X51163D01*
X52163Y151144D01*
Y153143D01*
X51163Y154143D01*
X48164D01*
X45165D02*
X43166D01*
X42166Y153143D01*
Y150144D01*
X45165D01*
X46165Y151144D01*
X45165Y152143D01*
X42166D01*
M02*
