M48
;Layer_Color=9474304
;FILE_FORMAT=2:4
INCH,LZ
;TYPE=PLATED
T1F00S00C0.0200
T2F00S00C0.0280
T3F00S00C0.0354
T4F00S00C0.0520
T5F00S00C0.0531
T6F00S00C0.1260
%
T01
X006257Y000657
X006607
X006957
X007307
X007657
X008007
X008357
X008707
X009057
X009407
X009757
X010107
X010457
X010807
X011157
X011507
Y001007
Y001357
Y001707
Y002057
Y002407
Y002757
Y003107
Y003457
Y003807
Y004157
Y004507
X011157
Y004157
Y003807
Y003457
Y003107
Y002757
Y002407
Y002057
Y001707
Y001357
Y001007
X010807Y004507
X010457
X010107
X009757
X009407
X009057
X008707
X008357
X008007
X007657
X007307
X006957
X006607
Y004157
Y003807
Y003457
Y003107
Y002757
Y002407
Y002057
Y001707
Y001357
Y001007
X006257
Y001357
Y001707
Y002057
Y002407
Y002757
Y003107
Y003457
Y003807
Y004157
Y004507
T02
X008268Y007874
T03
X013189Y016732
X014189
T04
X006421Y01811
X008071
X009571
X004921
T05
X002165Y00689
Y008858
Y010827
Y012795
T06
X001575Y001575
X01811
Y01811
X001575
M30
